<?xml version="1.0" standalone="no"?>
<!DOCTYPE svg PUBLIC "-//W3C//DTD SVG 20010904//EN"
 "http://www.w3.org/TR/2001/REC-SVG-20010904/DTD/svg10.dtd">
<svg version="1.0" xmlns="http://www.w3.org/2000/svg"
 width="1280.000000pt" height="1280.000000pt" viewBox="0 0 1280.000000 1280.000000"
 preserveAspectRatio="xMidYMid meet">
<metadata>
Created by potrace 1.15, written by Peter Selinger 2001-2017
</metadata>
<g transform="translate(0.000000,1280.000000) scale(0.100000,-0.100000)"
fill="#000000" stroke="none">
<path d="M6380 12189 c-1233 -64 -2345 -759 -2868 -1790 -212 -416 -305 -773
-319 -1219 -16 -529 97 -1008 337 -1427 70 -121 177 -276 257 -370 29 -34 54
-67 55 -73 2 -5 -91 -51 -206 -100 -338 -145 -553 -268 -791 -453 -361 -281
-647 -614 -871 -1015 -212 -377 -349 -796 -409 -1252 -23 -167 -31 -559 -16
-731 66 -756 343 -1473 797 -2059 114 -148 406 -440 554 -554 560 -434 1195
-669 1960 -726 759 -56 1552 106 2174 446 445 244 836 597 1105 998 190 283
316 551 450 956 121 367 160 523 381 1515 167 749 243 1036 406 1523 281 843
443 1142 714 1318 113 73 203 103 355 119 85 9 175 33 206 56 36 26 59 78 59
136 0 137 -117 183 -415 163 -284 -19 -484 -69 -692 -173 -189 -96 -445 -279
-663 -476 -235 -213 -389 -295 -555 -295 -142 0 -239 53 -299 165 -34 62 -52
42 147 168 554 349 950 728 1529 1462 504 640 906 1346 1086 1912 245 765 163
1317 -227 1521 -98 51 -177 69 -306 68 -370 -1 -769 -211 -1210 -634 l-129
-125 -123 104 c-436 366 -839 596 -1262 718 -137 39 -329 78 -491 100 -108 14
-464 36 -540 33 -19 0 -100 -4 -180 -9z m516 -270 c526 -51 1024 -232 1489
-542 103 -69 300 -218 362 -274 l42 -38 -130 -155 c-740 -881 -1158 -1770
-1250 -2660 -19 -184 -17 -519 5 -660 29 -192 85 -391 153 -539 18 -40 33 -77
33 -81 0 -16 -364 -150 -407 -150 -9 0 -50 33 -92 73 -249 237 -581 416 -989
533 -327 94 -571 128 -922 128 -325 0 -602 -38 -942 -128 l-127 -33 -34 36
c-59 62 -160 192 -229 296 -176 266 -292 559 -345 874 -23 134 -25 576 -5 716
78 515 288 993 622 1415 172 217 475 495 720 660 422 284 931 469 1440 524
154 17 460 20 606 5z m3566 -192 c82 -38 133 -88 175 -174 37 -76 38 -79 42
-212 7 -289 -57 -571 -228 -1002 -220 -556 -436 -971 -756 -1454 -415 -627
-819 -1065 -1350 -1465 -141 -106 -319 -230 -329 -230 -9 0 3 209 20 357 41
356 150 716 474 1568 246 647 379 957 540 1258 128 240 108 226 176 121 80
-123 161 -272 250 -454 42 -85 77 -156 79 -158 2 -2 216 86 223 93 5 5 -114
270 -173 382 -79 151 -147 260 -237 381 l-68 92 52 83 c223 357 391 566 549
682 98 72 244 140 339 159 58 11 170 -3 222 -27z m-572 -4392 c0 -2 -46 -37
-102 -76 -307 -216 -419 -326 -621 -611 -124 -176 -202 -305 -312 -523 -198
-390 -450 -1009 -675 -1660 -547 -1578 -741 -2028 -1111 -2575 -417 -618 -905
-995 -1473 -1141 -454 -117 -1004 -98 -1509 52 -339 101 -713 301 -1028 550
-132 104 -371 343 -478 478 -359 452 -602 1000 -690 1551 -38 234 -46 342 -45
610 1 456 65 801 221 1195 152 386 363 712 647 1004 354 362 747 622 1282 849
l71 30 124 -89 c330 -236 697 -412 1036 -497 255 -65 492 -92 793 -92 290 0
473 20 847 92 117 22 219 38 227 35 27 -10 177 -191 251 -302 164 -245 263
-524 307 -865 15 -121 15 -479 -1 -590 -108 -768 -522 -1420 -1176 -1853 -531
-352 -1175 -459 -1705 -284 -186 61 -407 188 -563 324 -205 179 -388 455 -475
719 -53 158 -74 289 -79 489 -6 198 5 291 54 463 24 89 25 96 10 127 -14 30
-25 36 -99 59 -73 23 -84 24 -94 10 -18 -23 -81 -219 -98 -304 -8 -42 -20
-116 -26 -165 -49 -428 91 -936 356 -1295 62 -85 229 -256 324 -333 289 -233
654 -386 1050 -438 121 -16 446 -16 570 0 892 115 1628 680 2008 1541 180 408
250 785 239 1283 -10 461 -88 772 -275 1097 -62 108 -178 271 -248 348 -25 29
-45 54 -43 56 2 2 84 36 182 76 l178 72 82 -78 c96 -91 167 -136 276 -175 149
-53 322 -61 466 -24 89 24 251 106 341 173 43 32 160 130 259 217 349 307 453
378 655 450 36 13 66 24 68 24 1 1 2 -1 2 -4z m-4505 -35 c395 -25 740 -111
1039 -260 207 -102 486 -293 454 -311 -19 -10 -204 -46 -328 -64 -187 -26
-498 -38 -699 -26 -418 25 -686 92 -1016 256 -168 84 -445 251 -446 270 0 11
40 22 228 65 161 37 303 59 443 69 155 12 152 12 325 1z"/>
</g>
</svg>
